<svg width="258" height="128" viewBox="0 0 258 128" fill="none" xmlns="http://www.w3.org/2000/svg">
<ellipse cx="128.952" cy="63.9768" rx="123" ry="41.5" transform="rotate(10.8832 128.952 63.9768)" fill="#E00000"/>
<path d="M64.3176 47.9279L63.6851 51.2176L103.8 58.9304L104.433 55.6406L64.3176 47.9279ZM67.7814 56.1294L67.1772 59.2718L93.2988 64.2941L92.5247 68.3203L66.5013 63.3169L64.887 71.7132L68.9133 72.4873L69.9517 67.0862L95.9751 72.0896L97.9292 61.9257L67.7814 56.1294ZM65.0758 70.7312L64.4716 73.8736L95.847 79.906L96.4512 76.7635L65.0758 70.7312ZM85.0922 35.4763L84.8184 36.9002C83.9027 41.663 75.8484 43.8313 67.507 42.9913L68.238 46.3395C77.8844 47.2777 87.0906 44.4144 88.4028 37.5894L88.6765 36.1654L85.0922 35.4763ZM86.2706 35.7029L85.9968 37.1268C84.6846 43.9518 92.1727 50.0248 101.43 52.7212L103.351 49.8827C95.2923 47.5697 88.6164 42.5693 89.5321 37.8065L89.8059 36.3826L86.2706 35.7029ZM71.3137 31.4015L70.6906 34.6422L103.539 40.9578L104.162 37.7171L71.3137 31.4015ZM145.577 43.9485L140.979 67.8606L145.054 68.6441L149.652 44.7321L145.577 43.9485ZM133.868 53.2044L133.217 56.5924L143.479 58.5654L144.13 55.1774L133.868 53.2044ZM131.103 44.0171L130.745 45.8829C129.206 53.8863 121.661 58.6985 109.556 59.4261L110.554 62.9782C124.168 62.0825 133.281 55.9937 135.424 44.8479L131.103 44.0171ZM115.44 41.0056L114.798 44.3445L133.309 47.9035L133.951 44.5646L115.44 41.0056ZM115.955 65.3405L112.547 83.0658L141.222 88.579L144.63 70.8536L140.603 70.0795L139.537 75.6279L118.914 71.663L119.981 66.1146L115.955 65.3405ZM118.301 74.8545L138.923 78.8195L137.837 84.466L117.215 80.5011L118.301 74.8545ZM188.349 52.1212L179.796 96.6065L183.92 97.3994L192.473 52.9142L188.349 52.1212ZM188.121 70.2543L187.46 73.6914L195.709 75.2774L196.37 71.8403L188.121 70.2543ZM154.446 76.7124L153.785 80.1495L157.271 80.8198C165.619 82.4246 171.509 83.3025 178.579 83.3381L178.798 79.8161C171.933 79.7692 166.132 78.9592 157.932 77.3827L154.446 76.7124ZM159.383 51.0328L154.153 78.2346L158.18 79.0087L162.768 55.1457L179.364 58.3366L180.006 54.9977L159.383 51.0328Z" fill="white"/>
</svg>
